<svg width="198" height="38" viewBox="0 0 198 38" fill="none" xmlns="http://www.w3.org/2000/svg">
<g clip-path="url(#clip0)">
<path d="M6.91078 20.72V18.46C13.5944 17.5423 20.3345 17.0979 27.0808 17.13C27.0808 17.73 27.0808 18.34 27.0208 18.95C28.9384 18.099 30.9536 17.4877 33.0208 17.13C31.7033 13.722 29.3025 10.8412 26.1879 8.93086C23.0732 7.02051 19.4172 6.1864 15.7822 6.55683C12.1472 6.92726 8.73456 8.48172 6.06929 10.9811C3.40402 13.4804 1.63374 16.7863 1.03078 20.39L6.91078 20.72Z" fill="#FDC305"/>
<path d="M28.0808 24.23C26.9208 25.51 26.6908 25.43 26.6908 27.68C26.6908 28.59 26.6908 32.58 26.6908 36.86C28.9833 35.346 30.8653 33.2879 32.1688 30.8694C33.4722 28.4509 34.1566 25.7474 34.1608 23C34.1476 21.9591 34.0405 20.9216 33.8408 19.9C31.769 21.1295 29.8375 22.5814 28.0808 24.23Z" fill="#FDC305"/>
<path d="M7.20077 25.72C7.20077 25.72 3.41077 24.28 2.01077 23.89C1.62784 23.7693 1.23687 23.6757 0.840775 23.61C0.94917 26.496 1.80636 29.3041 3.32816 31.7586C4.84996 34.2131 6.98403 36.2296 9.52077 37.61L7.20077 25.72Z" fill="#FDC305"/>
<path d="M27.1308 17.12C27.1714 11.5986 26.7028 6.08529 25.7308 0.650004C25.7308 0.650004 25.5908 -0.639996 24.8408 0.410004C24.2517 1.65814 23.8474 2.9854 23.6408 4.35C19.3826 4.07577 15.1083 4.18958 10.8708 4.69C10.0808 2 8.69078 0.750004 8.02078 1C7.35078 1.25 7.30078 4.31 7.30078 4.31L6.97078 18.41C13.652 17.506 20.3888 17.0749 27.1308 17.12Z" fill="#F06351"/>
<path d="M13.2508 14C13.2508 13.91 14.2508 14.68 14.6608 14.92C15.0708 15.16 15.2708 15.34 15.2708 15.51C15.2708 15.68 15.0008 15.85 14.6408 15.85C14.2808 15.85 13.7308 15.73 13.6408 15.58H14.5808H14.8708C14.2615 15.1294 13.7165 14.5978 13.2508 14Z" fill="black"/>
<path d="M20.7308 14.11L19.6408 15.44C19.6408 15.5 19.4708 15.79 19.8208 15.74C20.235 15.6783 20.6431 15.5812 21.0408 15.45C21.1508 15.45 21.1108 15.26 20.9308 15.28C20.7508 15.3 20.2408 15.33 19.9308 15.39L20.7708 14.13C20.7708 14.13 20.8408 14 20.7308 14.11Z" fill="black"/>
<path d="M17.5908 20.2C18.0543 19.9958 18.4375 19.6443 18.6808 19.2C18.9608 18.55 18.6808 18.29 18.2408 18.2C17.6387 18.0902 17.0173 18.2116 16.5008 18.54C16.1108 18.9 16.1608 19.26 16.4508 19.54C16.8021 19.8062 17.185 20.0279 17.5908 20.2Z" fill="black"/>
<path d="M17.1908 21.45C17.0787 21.6785 16.9224 21.8825 16.7308 22.05C16.446 22.2791 16.0959 22.4122 15.7308 22.43C15.2046 22.472 14.6814 22.3189 14.2608 22C14.063 21.8808 13.8844 21.7324 13.7308 21.56C13.6303 21.4491 13.5076 21.3605 13.3708 21.3C13.3708 21.3 14.1208 25.4 15.9408 26.05C17.7608 26.7 18.0808 25.3 18.1408 24.92C18.2009 23.7851 17.915 22.6588 17.3208 21.69C17.3008 21.38 17.2908 21.58 17.1908 21.45Z" fill="#F06351"/>
<path d="M15.5508 22.59C15.0861 22.5247 14.6397 22.3651 14.239 22.1209C13.8383 21.8767 13.4918 21.5531 13.2208 21.17C13.2075 21.157 13.1969 21.1414 13.1897 21.1242C13.1825 21.1071 13.1788 21.0886 13.1788 21.07C13.1788 21.0514 13.1825 21.0329 13.1897 21.0158C13.1969 20.9986 13.2075 20.983 13.2208 20.97C13.2338 20.9567 13.2494 20.9461 13.2665 20.9389C13.2837 20.9317 13.3021 20.928 13.3208 20.928C13.3394 20.928 13.3578 20.9317 13.375 20.9389C13.3922 20.9461 13.4077 20.9567 13.4208 20.97C13.9255 21.6642 14.6837 22.1313 15.5308 22.27C15.8624 22.245 16.1834 22.1413 16.4669 21.9674C16.7504 21.7934 16.9882 21.5544 17.1608 21.27L17.3008 21.08L17.4008 21.29C17.4008 21.29 17.7708 22.05 18.4008 22.09C19.0308 22.13 19.4508 21.68 20.0108 20.81C20.0238 20.7967 20.0394 20.7861 20.0565 20.7789C20.0737 20.7717 20.0921 20.768 20.1108 20.768C20.1294 20.768 20.1478 20.7717 20.165 20.7789C20.1822 20.7861 20.1977 20.7967 20.2108 20.81C20.2431 20.8306 20.2663 20.8629 20.2756 20.9C20.2849 20.9372 20.2796 20.9766 20.2608 21.01C19.6208 22.01 18.9908 22.45 18.3808 22.41C18.1488 22.3763 17.9274 22.2903 17.7334 22.1587C17.5394 22.0271 17.3778 21.8531 17.2608 21.65C17.0641 21.9245 16.8084 22.1514 16.5125 22.3141C16.2165 22.4767 15.8879 22.571 15.5508 22.59Z" fill="black"/>
<path d="M27.0808 18.92C25.2852 20.5437 23.592 22.277 22.0108 24.11C20.4394 25.9361 18.6646 27.5768 16.7208 29C16.5008 28.47 15.1008 27.49 15.1008 27.49C15.1008 27.49 11.9708 25.35 9.92078 23.67C8.81492 22.7373 7.76947 21.7353 6.79078 20.67L4.79078 20.56C7.68095 24.7655 11.911 27.8676 16.7908 29.36C17.6508 29.22 20.0608 27.5 21.8608 26.1C23.9797 24.2819 25.9648 22.3134 27.8008 20.21C28.3033 19.621 28.69 18.9425 28.9408 18.21C27.8408 18.6 27.0808 18.92 27.0808 18.92Z" fill="#F06351"/>
</g>
<path fill-rule="evenodd" clip-rule="evenodd" d="M97.4336 26.305C96.5387 25.0427 96.0945 23.5293 96.1692 21.9973V15.6127C96.0608 14.0643 96.4772 12.524 97.3546 11.2281C98.2239 10.2281 99.5675 9.76654 101.543 9.76654C103.519 9.76654 104.783 10.2281 105.574 11.0742C106.432 12.1459 106.854 13.4879 106.759 14.8435V16.3819H102.887V14.6127C102.918 14.0894 102.837 13.5655 102.65 13.0742C102.549 12.8759 102.39 12.7113 102.193 12.6017C101.996 12.492 101.77 12.4423 101.543 12.4588C100.99 12.4588 100.595 12.6127 100.437 12.9973C100.258 13.5439 100.178 14.1164 100.2 14.6896V22.9204C100.158 23.4765 100.267 24.0335 100.516 24.5358C100.674 24.9204 101.069 25.0742 101.622 25.0742C102.175 25.0742 102.492 24.9204 102.65 24.5358C102.829 24.0159 102.91 23.4684 102.887 22.9204V21.0742H106.759V22.6127C106.84 23.9904 106.42 25.3517 105.574 26.4588C104.783 27.3819 103.44 27.8435 101.543 27.8435C99.6465 27.7665 98.2239 27.305 97.4336 26.305ZM111.422 9.99731H115.927L119.246 27.5358H115.61L114.978 23.8435H112.37L111.738 27.5358H108.024L111.422 9.99731ZM114.662 21.5358L113.714 14.6896L112.765 21.5358H114.662ZM119.325 12.9204H122.012V27.5358H126.042V12.8435H128.729V9.99731H119.325V12.9204ZM135.921 9.99731H142.876V11.8435H138.371V17.6127H142.006V19.3819H138.371V25.8435H142.876V27.6127H135.842V9.99731H135.921ZM146.669 9.99731H144.93V27.5358H147.064V15.5358L152.28 27.5358H153.861V9.99731H151.806V21.6127L146.669 9.99731ZM156.232 9.99731H163.186V11.8435H158.682V17.6127H162.317V19.3819H158.682V25.8435H163.186V27.6127H156.232V9.99731ZM168.877 9.99731H165.241H165.162V27.4588H167.691V19.2281H169.667L172.038 27.4588H174.488L171.959 18.6896C173.46 18.2281 174.172 16.8435 174.172 14.6127C174.172 12.9973 173.776 11.7665 172.907 11.0742C171.728 10.2809 170.307 9.90116 168.877 9.99731ZM171.01 16.9204C170.345 17.3831 169.533 17.6011 168.718 17.5358V17.4588H167.77V11.6896H168.877C169.473 11.6501 170.071 11.7559 170.615 11.9973C171.001 12.2038 171.307 12.5282 171.485 12.9204C171.663 13.4669 171.744 14.0395 171.722 14.6127C171.722 15.7665 171.485 16.5358 171.01 16.9204ZM177.333 26.2281C176.511 24.8831 176.126 23.3282 176.226 21.7665V15.9204C176.207 14.8056 176.34 13.6933 176.621 12.6127C176.886 11.8052 177.413 11.1032 178.123 10.6127C179.005 10.1043 180.023 9.86327 181.047 9.92038C182.707 9.92038 183.892 10.305 184.603 11.1512C185.422 12.2684 185.813 13.6289 185.71 14.9973V15.6127H183.339V15.0742C183.343 14.43 183.29 13.7866 183.181 13.1512C183.114 12.7496 182.887 12.39 182.549 12.1512C182.104 11.8674 181.577 11.7323 181.047 11.7665C180.48 11.7312 179.92 11.895 179.466 12.2281C179.281 12.3805 179.129 12.5684 179.02 12.78C178.911 12.9916 178.848 13.2226 178.834 13.4588C178.73 14.1465 178.677 14.8407 178.676 15.5358V22.0742C178.618 23.0704 178.78 24.0671 179.15 24.9973C179.466 25.6127 180.099 25.8435 181.047 25.8435C181.422 25.8889 181.801 25.8255 182.139 25.6612C182.476 25.497 182.756 25.2392 182.944 24.9204C183.361 23.9477 183.55 22.8964 183.497 21.8435V20.6127H181.205V18.8435H185.789V27.5358H184.208L183.971 25.5358C183.764 26.206 183.333 26.7897 182.745 27.1939C182.158 27.5981 181.449 27.7996 180.731 27.7665C180.078 27.8039 179.426 27.6829 178.833 27.4144C178.239 27.1459 177.724 26.7383 177.333 26.2281ZM186.974 10.0742L190.847 21.3819H190.926V27.5358H193.297V21.3819L197.169 10.0742H194.798L192.111 18.5358L189.345 10.0742H186.974Z" fill="#111111"/>
<defs>
<clipPath id="clip0">
<rect width="33.32" height="37.61" fill="white" transform="translate(0.840775)"/>
</clipPath>
</defs>
</svg>
